{"glyphs":{"0":{"ha":699,"x_min":47,"x_max":651,"o":"m 651 111 l 524 0 l 172 0 l 47 111 l 47 954 l 175 1065 l 524 1065 l 651 954 l 651 111 m 454 197 l 454 869 l 244 869 l 244 197 l 454 197 z "},"1":{"ha":404,"x_min":47,"x_max":357,"o":"m 47 0 l 47 197 l 104 197 l 104 823 l 47 823 l 47 1020 l 169 1065 l 300 1065 l 300 197 l 357 197 l 357 0 l 47 0 z "},"2":{"ha":690,"x_min":47,"x_max":643,"o":"m 643 546 l 513 434 l 244 434 l 244 197 l 446 197 l 446 283 l 643 283 l 643 0 l 47 0 l 47 520 l 174 631 l 446 631 l 446 869 l 246 869 l 246 783 l 47 783 l 47 954 l 174 1065 l 517 1065 l 643 954 l 643 546 z "},"3":{"ha":691,"x_min":47,"x_max":644,"o":"m 644 111 l 517 0 l 173 0 l 47 111 l 47 283 l 244 283 l 244 197 l 446 197 l 446 434 l 231 434 l 231 631 l 446 631 l 446 869 l 244 869 l 244 783 l 47 783 l 47 954 l 174 1065 l 517 1065 l 644 954 l 644 626 l 568 532 l 644 439 l 644 111 z "},"4":{"ha":755,"x_min":47,"x_max":708,"o":"m 455 479 l 455 688 l 329 479 l 455 479 m 398 197 l 455 197 l 455 283 l 172 283 l 47 395 l 455 1065 l 652 1065 l 652 479 l 707 479 l 707 283 l 652 283 l 652 197 l 708 197 l 708 0 l 398 0 l 398 197 z "},"5":{"ha":684,"x_min":47,"x_max":636,"o":"m 636 113 l 509 1 l 173 1 l 47 113 l 47 283 l 244 283 l 244 197 l 439 197 l 439 507 l 173 507 l 47 618 l 47 1065 l 628 1065 l 628 783 l 431 783 l 431 869 l 245 869 l 245 704 l 510 704 l 636 593 l 636 113 z "},"6":{"ha":689,"x_min":47,"x_max":642,"o":"m 642 111 l 515 0 l 174 0 l 47 111 l 47 954 l 172 1065 l 513 1065 l 640 954 l 640 783 l 442 783 l 442 869 l 244 869 l 244 631 l 515 631 l 642 521 l 642 111 m 441 197 l 441 434 l 244 434 l 244 197 l 441 197 z "},"7":{"ha":703,"x_min":47,"x_max":655,"o":"m 655 947 l 436 197 l 483 197 l 483 0 l 173 0 l 173 197 l 233 197 l 438 869 l 244 869 l 244 783 l 47 783 l 47 1065 l 597 1065 l 655 947 z "},"8":{"ha":691,"x_min":47,"x_max":644,"o":"m 446 631 l 446 869 l 244 869 l 244 631 l 446 631 m 446 197 l 446 434 l 244 434 l 244 197 l 446 197 m 644 111 l 517 0 l 174 0 l 47 111 l 47 439 l 123 532 l 47 626 l 47 954 l 174 1065 l 517 1065 l 644 954 l 644 626 l 567 532 l 644 439 l 644 111 z "},"9":{"ha":692,"x_min":47,"x_max":644,"o":"m 644 111 l 518 0 l 179 0 l 53 111 l 53 283 l 245 283 l 245 197 l 448 197 l 448 434 l 173 434 l 47 545 l 47 954 l 173 1065 l 517 1065 l 644 953 l 644 111 m 448 631 l 448 869 l 245 869 l 245 631 l 448 631 z "}," ":{"ha":339,"x_min":0,"x_max":0,"o":""},"!":{"ha":95,"x_min":0,"x_max":0,"o":""},"\"":{"ha":95,"x_min":0,"x_max":0,"o":""},"#":{"ha":95,"x_min":0,"x_max":0,"o":""},"$":{"ha":688,"x_min":47,"x_max":640,"o":"m 47 954 l 174 1065 l 513 1065 l 640 954 l 640 783 l 439 783 l 439 869 l 244 869 l 244 726 l 640 439 l 640 112 l 513 0 l 174 0 l 47 111 l 47 283 l 247 283 l 247 197 l 443 197 l 443 345 l 47 627 l 47 954 z "},"%":{"ha":95,"x_min":0,"x_max":0,"o":""},"&":{"ha":95,"x_min":0,"x_max":0,"o":""},"'":{"ha":95,"x_min":0,"x_max":0,"o":""},"(":{"ha":755,"x_min":0,"x_max":0,"o":""},")":{"ha":747,"x_min":0,"x_max":0,"o":""},"*":{"ha":95,"x_min":0,"x_max":0,"o":""},"+":{"ha":95,"x_min":0,"x_max":0,"o":""},",":{"ha":95,"x_min":0,"x_max":0,"o":""},"-":{"ha":95,"x_min":0,"x_max":0,"o":""},".":{"ha":292,"x_min":47,"x_max":244,"o":"m 47 0 l 47 197 l 244 197 l 244 0 l 47 0 z "},"/":{"ha":95,"x_min":0,"x_max":0,"o":""},":":{"ha":95,"x_min":0,"x_max":0,"o":""},";":{"ha":95,"x_min":0,"x_max":0,"o":""},"<":{"ha":95,"x_min":0,"x_max":0,"o":""},"=":{"ha":95,"x_min":0,"x_max":0,"o":""},">":{"ha":95,"x_min":0,"x_max":0,"o":""},"?":{"ha":95,"x_min":0,"x_max":0,"o":""},"@":{"ha":95,"x_min":0,"x_max":0,"o":""},"A":{"ha":825,"x_min":47,"x_max":777,"o":"m 467 0 l 467 197 l 523 197 l 506 283 l 317 283 l 300 197 l 357 197 l 357 0 l 47 0 l 47 197 l 100 197 l 273 1065 l 550 1065 l 724 197 l 777 197 l 777 0 l 467 0 m 357 479 l 467 479 l 412 753 l 357 479 z "},"B":{"ha":748,"x_min":47,"x_max":701,"o":"m 301 631 l 503 631 l 503 869 l 301 869 l 301 631 m 104 197 l 104 869 l 47 869 l 47 1065 l 574 1065 l 701 954 l 701 626 l 625 534 l 701 439 l 701 111 l 574 0 l 47 0 l 47 197 l 104 197 m 301 197 l 503 197 l 503 434 l 301 434 l 301 197 z "},"C":{"ha":700,"x_min":47,"x_max":652,"o":"m 652 111 l 524 0 l 173 0 l 47 111 l 47 954 l 173 1065 l 524 1065 l 652 953 l 652 783 l 456 783 l 456 869 l 244 869 l 244 197 l 456 197 l 456 283 l 652 283 l 652 111 z "},"D":{"ha":763,"x_min":47,"x_max":715,"o":"m 588 1065 l 715 953 l 715 112 l 588 0 l 47 0 l 47 197 l 104 197 l 104 869 l 47 869 l 47 1065 l 588 1065 m 519 197 l 519 869 l 301 869 l 301 197 l 519 197 z "},"E":{"ha":717,"x_min":47,"x_max":669,"o":"m 47 0 l 47 197 l 104 197 l 104 869 l 47 869 l 47 1065 l 669 1065 l 669 783 l 473 783 l 473 869 l 300 869 l 300 631 l 570 631 l 570 434 l 300 434 l 300 197 l 473 197 l 473 283 l 669 283 l 669 0 l 47 0 z "},"F":{"ha":717,"x_min":47,"x_max":669,"o":"m 472 869 l 301 869 l 301 631 l 570 631 l 570 434 l 301 434 l 301 197 l 357 197 l 357 0 l 47 0 l 47 197 l 104 197 l 104 869 l 47 869 l 47 1065 l 669 1065 l 669 783 l 472 783 l 472 869 z "},"G":{"ha":702,"x_min":47,"x_max":654,"o":"m 654 111 l 527 0 l 173 0 l 47 111 l 47 954 l 175 1065 l 527 1065 l 654 954 l 654 783 l 458 783 l 458 869 l 245 869 l 245 197 l 458 197 l 458 434 l 323 434 l 323 631 l 654 631 l 654 111 z "},"H":{"ha":825,"x_min":47,"x_max":777,"o":"m 467 0 l 467 197 l 524 197 l 524 434 l 300 434 l 300 197 l 357 197 l 357 0 l 47 0 l 47 197 l 104 197 l 104 869 l 47 869 l 47 1065 l 357 1065 l 357 869 l 300 869 l 300 631 l 524 631 l 524 869 l 467 869 l 467 1065 l 777 1065 l 777 869 l 720 869 l 720 197 l 777 197 l 777 0 l 467 0 z "},"I":{"ha":405,"x_min":47,"x_max":357,"o":"m 47 0 l 47 197 l 104 197 l 104 869 l 47 869 l 47 1065 l 357 1065 l 357 869 l 301 869 l 301 197 l 357 197 l 357 0 l 47 0 z "},"J":{"ha":724,"x_min":47,"x_max":677,"o":"m 620 111 l 493 0 l 174 0 l 47 111 l 47 283 l 244 283 l 244 197 l 423 197 l 423 869 l 367 869 l 367 1065 l 677 1065 l 677 869 l 620 869 l 620 111 z "},"K":{"ha":848,"x_min":47,"x_max":801,"o":"m 801 869 l 745 869 l 528 593 l 735 197 l 801 197 l 801 0 l 467 0 l 467 197 l 513 197 l 395 423 l 300 302 l 300 197 l 357 197 l 357 0 l 47 0 l 47 197 l 104 197 l 104 869 l 47 869 l 47 1065 l 357 1065 l 357 869 l 300 869 l 300 623 l 494 869 l 467 869 l 467 1065 l 801 1065 l 801 869 z "},"L":{"ha":696,"x_min":47,"x_max":648,"o":"m 47 0 l 47 197 l 104 197 l 104 869 l 47 869 l 47 1065 l 357 1065 l 357 869 l 301 869 l 301 197 l 451 197 l 451 283 l 648 283 l 648 0 l 47 0 z "},"M":{"ha":949,"x_min":47,"x_max":901,"o":"m 591 0 l 591 197 l 646 197 l 646 600 l 474 234 l 303 600 l 303 197 l 357 197 l 357 0 l 47 0 l 47 197 l 106 197 l 106 869 l 50 869 l 50 1065 l 303 1065 l 474 699 l 646 1065 l 899 1065 l 899 869 l 843 869 l 843 197 l 901 197 l 901 0 l 591 0 z "},"N":{"ha":831,"x_min":47,"x_max":783,"o":"m 515 0 l 300 558 l 300 197 l 357 197 l 357 0 l 47 0 l 47 197 l 104 197 l 104 869 l 48 869 l 48 1065 l 315 1065 l 531 507 l 531 869 l 474 869 l 474 1065 l 783 1065 l 783 869 l 726 869 l 726 0 l 515 0 z "},"O":{"ha":713,"x_min":47,"x_max":666,"o":"m 666 111 l 539 0 l 173 0 l 47 111 l 47 954 l 173 1065 l 539 1065 l 666 954 l 666 111 m 469 197 l 469 869 l 244 869 l 244 197 l 469 197 z "},"P":{"ha":745,"x_min":47,"x_max":697,"o":"m 697 475 l 570 361 l 300 361 l 300 197 l 357 197 l 357 0 l 47 0 l 47 197 l 104 197 l 104 869 l 47 869 l 47 1065 l 570 1065 l 697 953 l 697 475 m 500 558 l 500 869 l 300 869 l 300 558 l 500 558 z "},"Q":{"ha":713,"x_min":47,"x_max":666,"o":"m 469 197 l 469 869 l 244 869 l 244 197 l 469 197 m 355 -43 l 319 0 l 172 0 l 47 111 l 47 954 l 174 1065 l 539 1065 l 666 954 l 666 112 l 543 4 l 581 -43 l 355 -43 z "},"R":{"ha":785,"x_min":47,"x_max":738,"o":"m 738 0 l 527 0 l 359 434 l 301 434 l 301 197 l 357 197 l 357 0 l 47 0 l 47 197 l 104 197 l 104 869 l 47 869 l 47 1065 l 576 1065 l 702 954 l 702 562 l 568 437 l 661 197 l 738 197 l 738 0 m 301 631 l 505 631 l 505 869 l 301 869 l 301 631 z "},"S":{"ha":687,"x_min":47,"x_max":640,"o":"m 640 111 l 514 0 l 174 0 l 47 111 l 47 283 l 244 283 l 244 197 l 443 197 l 443 434 l 174 434 l 47 546 l 47 954 l 174 1065 l 514 1065 l 640 954 l 640 783 l 443 783 l 443 869 l 244 869 l 244 631 l 514 631 l 640 519 l 640 111 z "},"T":{"ha":795,"x_min":47,"x_max":748,"o":"m 551 869 l 496 869 l 496 197 l 553 197 l 553 0 l 243 0 l 243 197 l 299 197 l 299 869 l 244 869 l 244 783 l 47 783 l 47 1065 l 748 1065 l 748 783 l 551 783 l 551 869 z "},"U":{"ha":821,"x_min":47,"x_max":774,"o":"m 718 112 l 589 0 l 230 0 l 104 111 l 104 869 l 47 869 l 47 1065 l 357 1065 l 357 869 l 300 869 l 300 197 l 521 197 l 521 869 l 464 869 l 464 1065 l 774 1065 l 774 869 l 718 869 l 718 112 z "},"V":{"ha":814,"x_min":47,"x_max":766,"o":"m 407 452 q 458 682 433 572 q 500 869 483 791 l 457 869 l 457 1065 l 766 1065 l 766 869 l 702 869 l 508 0 l 307 0 l 112 869 l 47 869 l 47 1065 l 357 1065 l 357 869 l 314 869 q 355 684 332 787 q 407 452 378 581 z "},"W":{"ha":1101,"x_min":47,"x_max":1054,"o":"m 1054 1065 l 1054 869 l 989 869 l 844 0 l 643 0 l 551 460 l 458 0 l 257 0 l 113 869 l 47 869 l 47 1065 l 357 1065 l 357 869 l 310 869 l 361 521 l 469 1065 l 632 1065 l 739 520 l 791 869 l 744 869 l 744 1065 l 1054 1065 z "},"X":{"ha":825,"x_min":47,"x_max":777,"o":"m 47 1065 l 357 1065 l 357 869 l 330 869 l 412 728 l 494 869 l 467 869 l 467 1065 l 777 1065 l 777 869 l 722 869 l 526 534 l 722 197 l 777 197 l 777 0 l 467 0 l 467 197 l 494 197 l 412 338 l 330 197 l 357 197 l 357 0 l 47 0 l 47 197 l 102 197 l 298 534 l 102 869 l 47 869 l 47 1065 z "},"Y":{"ha":771,"x_min":47,"x_max":724,"o":"m 488 393 l 488 197 l 543 197 l 543 0 l 233 0 l 233 197 l 289 197 l 289 394 l 122 869 l 47 869 l 47 1065 l 357 1065 l 357 869 l 321 869 l 389 669 l 456 869 l 422 869 l 422 1065 l 724 1065 l 724 869 l 660 869 l 488 393 z "},"Z":{"ha":661,"x_min":47,"x_max":614,"o":"m 614 0 l 47 0 l 47 89 l 363 869 l 272 869 l 272 783 l 75 783 l 75 1065 l 612 1065 l 612 958 l 304 197 l 416 197 l 416 283 l 614 283 l 614 0 z "},"[":{"ha":95,"x_min":0,"x_max":0,"o":""},"\\":{"ha":95,"x_min":0,"x_max":0,"o":""},"]":{"ha":95,"x_min":0,"x_max":0,"o":""},"^":{"ha":95,"x_min":0,"x_max":0,"o":""},"_":{"ha":95,"x_min":0,"x_max":0,"o":""},"`":{"ha":95,"x_min":0,"x_max":0,"o":""},"a":{"ha":825,"x_min":47,"x_max":777,"o":"m 467 0 l 467 197 l 523 197 l 506 283 l 317 283 l 300 197 l 357 197 l 357 0 l 47 0 l 47 197 l 100 197 l 273 1065 l 550 1065 l 724 197 l 777 197 l 777 0 l 467 0 m 357 479 l 467 479 l 412 753 l 357 479 z "},"b":{"ha":748,"x_min":47,"x_max":701,"o":"m 301 631 l 503 631 l 503 869 l 301 869 l 301 631 m 104 197 l 104 869 l 47 869 l 47 1065 l 574 1065 l 701 954 l 701 626 l 625 534 l 701 439 l 701 111 l 574 0 l 47 0 l 47 197 l 104 197 m 301 197 l 503 197 l 503 434 l 301 434 l 301 197 z "},"c":{"ha":700,"x_min":47,"x_max":652,"o":"m 652 111 l 524 0 l 173 0 l 47 111 l 47 954 l 173 1065 l 524 1065 l 652 953 l 652 783 l 456 783 l 456 869 l 244 869 l 244 197 l 456 197 l 456 283 l 652 283 l 652 111 z "},"d":{"ha":763,"x_min":47,"x_max":715,"o":"m 588 1065 l 715 953 l 715 112 l 588 0 l 47 0 l 47 197 l 104 197 l 104 869 l 47 869 l 47 1065 l 588 1065 m 519 197 l 519 869 l 301 869 l 301 197 l 519 197 z "},"e":{"ha":717,"x_min":47,"x_max":669,"o":"m 47 0 l 47 197 l 104 197 l 104 869 l 47 869 l 47 1065 l 669 1065 l 669 783 l 473 783 l 473 869 l 300 869 l 300 631 l 570 631 l 570 434 l 300 434 l 300 197 l 473 197 l 473 283 l 669 283 l 669 0 l 47 0 z "},"f":{"ha":717,"x_min":47,"x_max":669,"o":"m 472 869 l 301 869 l 301 631 l 570 631 l 570 434 l 301 434 l 301 197 l 357 197 l 357 0 l 47 0 l 47 197 l 104 197 l 104 869 l 47 869 l 47 1065 l 669 1065 l 669 783 l 472 783 l 472 869 z "},"g":{"ha":702,"x_min":47,"x_max":654,"o":"m 654 111 l 527 0 l 173 0 l 47 111 l 47 954 l 175 1065 l 527 1065 l 654 954 l 654 783 l 458 783 l 458 869 l 245 869 l 245 197 l 458 197 l 458 434 l 323 434 l 323 631 l 654 631 l 654 111 z "},"h":{"ha":825,"x_min":47,"x_max":777,"o":"m 467 0 l 467 197 l 524 197 l 524 434 l 300 434 l 300 197 l 357 197 l 357 0 l 47 0 l 47 197 l 104 197 l 104 869 l 47 869 l 47 1065 l 357 1065 l 357 869 l 300 869 l 300 631 l 524 631 l 524 869 l 467 869 l 467 1065 l 777 1065 l 777 869 l 720 869 l 720 197 l 777 197 l 777 0 l 467 0 z "},"i":{"ha":405,"x_min":47,"x_max":357,"o":"m 47 0 l 47 197 l 104 197 l 104 869 l 47 869 l 47 1065 l 357 1065 l 357 869 l 301 869 l 301 197 l 357 197 l 357 0 l 47 0 z "},"j":{"ha":724,"x_min":47,"x_max":677,"o":"m 620 111 l 493 0 l 174 0 l 47 111 l 47 283 l 244 283 l 244 197 l 423 197 l 423 869 l 367 869 l 367 1065 l 677 1065 l 677 869 l 620 869 l 620 111 z "},"k":{"ha":848,"x_min":47,"x_max":801,"o":"m 801 869 l 745 869 l 528 593 l 735 197 l 801 197 l 801 0 l 467 0 l 467 197 l 513 197 l 395 423 l 300 302 l 300 197 l 357 197 l 357 0 l 47 0 l 47 197 l 104 197 l 104 869 l 47 869 l 47 1065 l 357 1065 l 357 869 l 300 869 l 300 623 l 494 869 l 467 869 l 467 1065 l 801 1065 l 801 869 z "},"l":{"ha":696,"x_min":47,"x_max":648,"o":"m 47 0 l 47 197 l 104 197 l 104 869 l 47 869 l 47 1065 l 357 1065 l 357 869 l 301 869 l 301 197 l 451 197 l 451 283 l 648 283 l 648 0 l 47 0 z "},"m":{"ha":949,"x_min":47,"x_max":901,"o":"m 591 0 l 591 197 l 646 197 l 646 600 l 474 234 l 303 600 l 303 197 l 357 197 l 357 0 l 47 0 l 47 197 l 106 197 l 106 869 l 50 869 l 50 1065 l 303 1065 l 474 699 l 646 1065 l 899 1065 l 899 869 l 843 869 l 843 197 l 901 197 l 901 0 l 591 0 z "},"n":{"ha":831,"x_min":47,"x_max":783,"o":"m 515 0 l 300 558 l 300 197 l 357 197 l 357 0 l 47 0 l 47 197 l 104 197 l 104 869 l 48 869 l 48 1065 l 315 1065 l 531 507 l 531 869 l 474 869 l 474 1065 l 783 1065 l 783 869 l 726 869 l 726 0 l 515 0 z "},"o":{"ha":713,"x_min":47,"x_max":666,"o":"m 666 111 l 539 0 l 173 0 l 47 111 l 47 954 l 173 1065 l 539 1065 l 666 954 l 666 111 m 469 197 l 469 869 l 244 869 l 244 197 l 469 197 z "},"p":{"ha":745,"x_min":47,"x_max":697,"o":"m 697 475 l 570 361 l 300 361 l 300 197 l 357 197 l 357 0 l 47 0 l 47 197 l 104 197 l 104 869 l 47 869 l 47 1065 l 570 1065 l 697 953 l 697 475 m 500 558 l 500 869 l 300 869 l 300 558 l 500 558 z "},"q":{"ha":713,"x_min":47,"x_max":666,"o":"m 469 197 l 469 869 l 244 869 l 244 197 l 469 197 m 355 -43 l 319 0 l 172 0 l 47 111 l 47 954 l 174 1065 l 539 1065 l 666 954 l 666 112 l 543 4 l 581 -43 l 355 -43 z "},"r":{"ha":785,"x_min":47,"x_max":738,"o":"m 738 0 l 527 0 l 359 434 l 301 434 l 301 197 l 357 197 l 357 0 l 47 0 l 47 197 l 104 197 l 104 869 l 47 869 l 47 1065 l 576 1065 l 702 954 l 702 562 l 568 437 l 661 197 l 738 197 l 738 0 m 301 631 l 505 631 l 505 869 l 301 869 l 301 631 z "},"s":{"ha":687,"x_min":47,"x_max":640,"o":"m 640 111 l 514 0 l 174 0 l 47 111 l 47 283 l 244 283 l 244 197 l 443 197 l 443 434 l 174 434 l 47 546 l 47 954 l 174 1065 l 514 1065 l 640 954 l 640 783 l 443 783 l 443 869 l 244 869 l 244 631 l 514 631 l 640 519 l 640 111 z "},"t":{"ha":795,"x_min":47,"x_max":748,"o":"m 551 869 l 496 869 l 496 197 l 553 197 l 553 0 l 243 0 l 243 197 l 299 197 l 299 869 l 244 869 l 244 783 l 47 783 l 47 1065 l 748 1065 l 748 783 l 551 783 l 551 869 z "},"u":{"ha":821,"x_min":47,"x_max":774,"o":"m 718 112 l 589 0 l 230 0 l 104 111 l 104 869 l 47 869 l 47 1065 l 357 1065 l 357 869 l 300 869 l 300 197 l 521 197 l 521 869 l 464 869 l 464 1065 l 774 1065 l 774 869 l 718 869 l 718 112 z "},"v":{"ha":814,"x_min":47,"x_max":766,"o":"m 407 452 q 458 682 433 572 q 500 869 483 791 l 457 869 l 457 1065 l 766 1065 l 766 869 l 702 869 l 508 0 l 307 0 l 112 869 l 47 869 l 47 1065 l 357 1065 l 357 869 l 314 869 q 355 684 332 787 q 407 452 378 581 z "},"w":{"ha":1101,"x_min":47,"x_max":1054,"o":"m 1054 1065 l 1054 869 l 989 869 l 844 0 l 643 0 l 551 460 l 458 0 l 257 0 l 113 869 l 47 869 l 47 1065 l 357 1065 l 357 869 l 310 869 l 361 521 l 469 1065 l 632 1065 l 739 520 l 791 869 l 744 869 l 744 1065 l 1054 1065 z "},"x":{"ha":825,"x_min":47,"x_max":777,"o":"m 47 1065 l 357 1065 l 357 869 l 330 869 l 412 728 l 494 869 l 467 869 l 467 1065 l 777 1065 l 777 869 l 722 869 l 526 534 l 722 197 l 777 197 l 777 0 l 467 0 l 467 197 l 494 197 l 412 338 l 330 197 l 357 197 l 357 0 l 47 0 l 47 197 l 102 197 l 298 534 l 102 869 l 47 869 l 47 1065 z "},"y":{"ha":771,"x_min":47,"x_max":724,"o":"m 488 393 l 488 197 l 543 197 l 543 0 l 233 0 l 233 197 l 289 197 l 289 394 l 122 869 l 47 869 l 47 1065 l 357 1065 l 357 869 l 321 869 l 389 669 l 456 869 l 422 869 l 422 1065 l 724 1065 l 724 869 l 660 869 l 488 393 z "},"z":{"ha":661,"x_min":47,"x_max":614,"o":"m 614 0 l 47 0 l 47 89 l 363 869 l 272 869 l 272 783 l 75 783 l 75 1065 l 612 1065 l 612 958 l 304 197 l 416 197 l 416 283 l 614 283 l 614 0 z "},"{":{"ha":692,"x_min":47,"x_max":644,"o":"m 245 281 l 245 197 l 448 197 l 448 283 l 644 283 l 644 0 l 47 0 l 47 363 l 448 757 l 448 869 l 247 869 l 247 783 l 47 783 l 47 954 l 176 1065 l 517 1065 l 644 954 l 644 675 l 245 281 z "},"|":{"ha":684,"x_min":0,"x_max":0,"o":""},"}":{"ha":684,"x_min":47,"x_max":636,"o":"m 636 111 l 510 0 l 172 0 l 47 111 l 47 283 l 244 283 l 244 197 l 439 197 l 439 532 l 47 532 l 47 1065 l 628 1065 l 628 783 l 431 783 l 431 869 l 244 869 l 244 730 l 511 730 l 636 618 l 636 111 z "},"~":{"ha":747,"x_min":0,"x_max":0,"o":""}}}
